<mxfile host="app.diagrams.net" modified="2023-09-06T09:34:28.056Z" agent="Mozilla/5.0 (Windows NT 10.0; Win64; x64) AppleWebKit/537.36 (KHTML, like Gecko) Chrome/115.0.0.0 Safari/537.36" etag="lp8nHTLluqkN7lfENDwO" version="21.7.1" type="device">
  <diagram id="C5RBs43oDa-KdzZeNtuy" name="Page-1">
    <mxGraphModel dx="1434" dy="758" grid="1" gridSize="10" guides="1" tooltips="1" connect="1" arrows="1" fold="1" page="1" pageScale="1" pageWidth="827" pageHeight="1169" math="0" shadow="0">
      <root>
        <mxCell id="WIyWlLk6GJQsqaUBKTNV-0" />
        <mxCell id="WIyWlLk6GJQsqaUBKTNV-1" parent="WIyWlLk6GJQsqaUBKTNV-0" />
        <mxCell id="f_1GU_j4ERplmiDREGUJ-12" value="&lt;font style=&quot;font-size: 18px;&quot;&gt;Model&lt;/font&gt;" style="text;html=1;strokeColor=none;fillColor=none;align=center;verticalAlign=middle;whiteSpace=wrap;rounded=0;" parent="WIyWlLk6GJQsqaUBKTNV-1" vertex="1">
          <mxGeometry x="10" y="370" width="100" height="60" as="geometry" />
        </mxCell>
        <mxCell id="f_1GU_j4ERplmiDREGUJ-14" value="" style="endArrow=classic;html=1;rounded=0;exitX=0.5;exitY=1;exitDx=0;exitDy=0;entryX=0.5;entryY=0;entryDx=0;entryDy=0;" parent="WIyWlLk6GJQsqaUBKTNV-1" target="f_1GU_j4ERplmiDREGUJ-16" edge="1">
          <mxGeometry width="50" height="50" relative="1" as="geometry">
            <mxPoint x="380" y="150" as="sourcePoint" />
            <mxPoint x="240" y="170" as="targetPoint" />
            <Array as="points">
              <mxPoint x="380" y="180" />
              <mxPoint x="150" y="180" />
            </Array>
          </mxGeometry>
        </mxCell>
        <mxCell id="f_1GU_j4ERplmiDREGUJ-15" value="" style="endArrow=classic;html=1;rounded=0;exitX=0.5;exitY=1;exitDx=0;exitDy=0;entryX=0.5;entryY=0;entryDx=0;entryDy=0;" parent="WIyWlLk6GJQsqaUBKTNV-1" target="f_1GU_j4ERplmiDREGUJ-17" edge="1">
          <mxGeometry width="50" height="50" relative="1" as="geometry">
            <mxPoint x="380" y="150" as="sourcePoint" />
            <mxPoint x="520" y="170" as="targetPoint" />
            <Array as="points">
              <mxPoint x="380" y="180" />
              <mxPoint x="620" y="180" />
            </Array>
          </mxGeometry>
        </mxCell>
        <mxCell id="f_1GU_j4ERplmiDREGUJ-16" value="Получение текущей даты от устройства" style="rounded=0;whiteSpace=wrap;html=1;" parent="WIyWlLk6GJQsqaUBKTNV-1" vertex="1">
          <mxGeometry x="90" y="210" width="120" height="60" as="geometry" />
        </mxCell>
        <mxCell id="f_1GU_j4ERplmiDREGUJ-17" value="Получение измененной пользователем даты" style="rounded=0;whiteSpace=wrap;html=1;" parent="WIyWlLk6GJQsqaUBKTNV-1" vertex="1">
          <mxGeometry x="560" y="210" width="120" height="60" as="geometry" />
        </mxCell>
        <mxCell id="f_1GU_j4ERplmiDREGUJ-19" value="" style="endArrow=classic;html=1;rounded=0;exitX=0.5;exitY=1;exitDx=0;exitDy=0;entryX=0;entryY=0.5;entryDx=0;entryDy=0;" parent="WIyWlLk6GJQsqaUBKTNV-1" source="f_1GU_j4ERplmiDREGUJ-16" target="f_1GU_j4ERplmiDREGUJ-20" edge="1">
          <mxGeometry width="50" height="50" relative="1" as="geometry">
            <mxPoint x="390" y="340" as="sourcePoint" />
            <mxPoint x="150" y="310" as="targetPoint" />
            <Array as="points">
              <mxPoint x="150" y="320" />
            </Array>
          </mxGeometry>
        </mxCell>
        <mxCell id="f_1GU_j4ERplmiDREGUJ-20" value="Отправка даты контроллеру" style="rounded=0;whiteSpace=wrap;html=1;" parent="WIyWlLk6GJQsqaUBKTNV-1" vertex="1">
          <mxGeometry x="320" y="290" width="120" height="60" as="geometry" />
        </mxCell>
        <mxCell id="f_1GU_j4ERplmiDREGUJ-23" value="" style="endArrow=classic;html=1;rounded=0;exitX=0.5;exitY=1;exitDx=0;exitDy=0;entryX=1;entryY=0.5;entryDx=0;entryDy=0;" parent="WIyWlLk6GJQsqaUBKTNV-1" source="f_1GU_j4ERplmiDREGUJ-17" target="f_1GU_j4ERplmiDREGUJ-20" edge="1">
          <mxGeometry width="50" height="50" relative="1" as="geometry">
            <mxPoint x="490" y="340" as="sourcePoint" />
            <mxPoint x="540" y="290" as="targetPoint" />
            <Array as="points">
              <mxPoint x="620" y="320" />
            </Array>
          </mxGeometry>
        </mxCell>
        <mxCell id="f_1GU_j4ERplmiDREGUJ-24" value="&lt;font style=&quot;font-size: 18px;&quot;&gt;Controller&lt;/font&gt;" style="text;html=1;strokeColor=none;fillColor=none;align=center;verticalAlign=middle;whiteSpace=wrap;rounded=0;" parent="WIyWlLk6GJQsqaUBKTNV-1" vertex="1">
          <mxGeometry y="120" width="120" height="60" as="geometry" />
        </mxCell>
        <mxCell id="f_1GU_j4ERplmiDREGUJ-25" value="" style="endArrow=classic;html=1;rounded=0;exitX=0.5;exitY=1;exitDx=0;exitDy=0;" parent="WIyWlLk6GJQsqaUBKTNV-1" source="f_1GU_j4ERplmiDREGUJ-20" target="f_1GU_j4ERplmiDREGUJ-167" edge="1">
          <mxGeometry width="50" height="50" relative="1" as="geometry">
            <mxPoint x="410" y="550" as="sourcePoint" />
            <mxPoint x="380" y="390" as="targetPoint" />
          </mxGeometry>
        </mxCell>
        <mxCell id="f_1GU_j4ERplmiDREGUJ-26" value="Расшифровка данных, полученных от формы на отдельные составные части" style="rounded=0;whiteSpace=wrap;html=1;" parent="WIyWlLk6GJQsqaUBKTNV-1" vertex="1">
          <mxGeometry x="290" y="605" width="180" height="80" as="geometry" />
        </mxCell>
        <mxCell id="f_1GU_j4ERplmiDREGUJ-27" value="" style="endArrow=classic;html=1;rounded=0;exitX=0;exitY=0.5;exitDx=0;exitDy=0;" parent="WIyWlLk6GJQsqaUBKTNV-1" source="f_1GU_j4ERplmiDREGUJ-26" edge="1">
          <mxGeometry width="50" height="50" relative="1" as="geometry">
            <mxPoint x="210" y="675" as="sourcePoint" />
            <mxPoint x="200" y="645" as="targetPoint" />
          </mxGeometry>
        </mxCell>
        <mxCell id="f_1GU_j4ERplmiDREGUJ-28" value="Год" style="text;html=1;strokeColor=none;fillColor=none;align=center;verticalAlign=middle;whiteSpace=wrap;rounded=0;" parent="WIyWlLk6GJQsqaUBKTNV-1" vertex="1">
          <mxGeometry x="220" y="615" width="60" height="30" as="geometry" />
        </mxCell>
        <mxCell id="f_1GU_j4ERplmiDREGUJ-30" value="Создаем отдельный экземпляр класса Год" style="rounded=0;whiteSpace=wrap;html=1;" parent="WIyWlLk6GJQsqaUBKTNV-1" vertex="1">
          <mxGeometry x="80" y="615" width="120" height="60" as="geometry" />
        </mxCell>
        <mxCell id="f_1GU_j4ERplmiDREGUJ-31" value="" style="endArrow=classic;html=1;rounded=0;exitX=0.5;exitY=1;exitDx=0;exitDy=0;" parent="WIyWlLk6GJQsqaUBKTNV-1" source="f_1GU_j4ERplmiDREGUJ-30" edge="1">
          <mxGeometry width="50" height="50" relative="1" as="geometry">
            <mxPoint x="125" y="765" as="sourcePoint" />
            <mxPoint x="140" y="735" as="targetPoint" />
          </mxGeometry>
        </mxCell>
        <mxCell id="f_1GU_j4ERplmiDREGUJ-180" style="edgeStyle=orthogonalEdgeStyle;rounded=0;orthogonalLoop=1;jettySize=auto;html=1;entryX=0;entryY=0.5;entryDx=0;entryDy=0;" parent="WIyWlLk6GJQsqaUBKTNV-1" source="f_1GU_j4ERplmiDREGUJ-32" target="f_1GU_j4ERplmiDREGUJ-34" edge="1">
          <mxGeometry relative="1" as="geometry" />
        </mxCell>
        <mxCell id="f_1GU_j4ERplmiDREGUJ-32" value="Ему присвается значение года, а также определяется его&amp;nbsp; высокосность" style="rounded=0;whiteSpace=wrap;html=1;" parent="WIyWlLk6GJQsqaUBKTNV-1" vertex="1">
          <mxGeometry x="70" y="735" width="140" height="70" as="geometry" />
        </mxCell>
        <mxCell id="f_1GU_j4ERplmiDREGUJ-33" value="" style="endArrow=classic;html=1;rounded=0;exitX=0.5;exitY=1;exitDx=0;exitDy=0;" parent="WIyWlLk6GJQsqaUBKTNV-1" source="f_1GU_j4ERplmiDREGUJ-26" target="f_1GU_j4ERplmiDREGUJ-34" edge="1">
          <mxGeometry width="50" height="50" relative="1" as="geometry">
            <mxPoint x="350" y="835" as="sourcePoint" />
            <mxPoint x="380" y="755" as="targetPoint" />
          </mxGeometry>
        </mxCell>
        <mxCell id="f_1GU_j4ERplmiDREGUJ-34" value="Создаем отдельный экземпляр класса Месяц, содержащий в себе количество дней, его название на трех языках&amp;nbsp;" style="rounded=0;whiteSpace=wrap;html=1;" parent="WIyWlLk6GJQsqaUBKTNV-1" vertex="1">
          <mxGeometry x="280" y="755" width="200" height="110" as="geometry" />
        </mxCell>
        <mxCell id="f_1GU_j4ERplmiDREGUJ-35" value="Месяц" style="text;html=1;strokeColor=none;fillColor=none;align=center;verticalAlign=middle;whiteSpace=wrap;rounded=0;" parent="WIyWlLk6GJQsqaUBKTNV-1" vertex="1">
          <mxGeometry x="320" y="700" width="60" height="30" as="geometry" />
        </mxCell>
        <mxCell id="f_1GU_j4ERplmiDREGUJ-36" value="" style="endArrow=classic;html=1;rounded=0;" parent="WIyWlLk6GJQsqaUBKTNV-1" edge="1">
          <mxGeometry width="50" height="50" relative="1" as="geometry">
            <mxPoint x="470" y="645" as="sourcePoint" />
            <mxPoint x="560" y="645" as="targetPoint" />
          </mxGeometry>
        </mxCell>
        <mxCell id="f_1GU_j4ERplmiDREGUJ-37" value="День" style="text;html=1;align=center;verticalAlign=middle;resizable=0;points=[];autosize=1;strokeColor=none;fillColor=none;" parent="WIyWlLk6GJQsqaUBKTNV-1" vertex="1">
          <mxGeometry x="495" y="603" width="50" height="30" as="geometry" />
        </mxCell>
        <mxCell id="f_1GU_j4ERplmiDREGUJ-38" value="Сохраняется в переменной его значение" style="rounded=0;whiteSpace=wrap;html=1;" parent="WIyWlLk6GJQsqaUBKTNV-1" vertex="1">
          <mxGeometry x="560" y="615" width="120" height="60" as="geometry" />
        </mxCell>
        <mxCell id="f_1GU_j4ERplmiDREGUJ-39" value="" style="endArrow=classic;html=1;rounded=0;exitX=0.5;exitY=1;exitDx=0;exitDy=0;" parent="WIyWlLk6GJQsqaUBKTNV-1" source="f_1GU_j4ERplmiDREGUJ-32" edge="1">
          <mxGeometry width="50" height="50" relative="1" as="geometry">
            <mxPoint x="100" y="895" as="sourcePoint" />
            <mxPoint x="380" y="945" as="targetPoint" />
            <Array as="points">
              <mxPoint x="140" y="945" />
            </Array>
          </mxGeometry>
        </mxCell>
        <mxCell id="f_1GU_j4ERplmiDREGUJ-41" value="" style="endArrow=classic;html=1;rounded=0;exitX=0.5;exitY=1;exitDx=0;exitDy=0;" parent="WIyWlLk6GJQsqaUBKTNV-1" source="f_1GU_j4ERplmiDREGUJ-34" edge="1">
          <mxGeometry width="50" height="50" relative="1" as="geometry">
            <mxPoint x="350" y="965" as="sourcePoint" />
            <mxPoint x="380" y="945" as="targetPoint" />
          </mxGeometry>
        </mxCell>
        <mxCell id="f_1GU_j4ERplmiDREGUJ-42" value="" style="endArrow=classic;html=1;rounded=0;exitX=0.5;exitY=1;exitDx=0;exitDy=0;" parent="WIyWlLk6GJQsqaUBKTNV-1" source="f_1GU_j4ERplmiDREGUJ-38" edge="1">
          <mxGeometry width="50" height="50" relative="1" as="geometry">
            <mxPoint x="630" y="805" as="sourcePoint" />
            <mxPoint x="380" y="945" as="targetPoint" />
            <Array as="points">
              <mxPoint x="620" y="945" />
            </Array>
          </mxGeometry>
        </mxCell>
        <mxCell id="f_1GU_j4ERplmiDREGUJ-182" style="edgeStyle=orthogonalEdgeStyle;rounded=0;orthogonalLoop=1;jettySize=auto;html=1;" parent="WIyWlLk6GJQsqaUBKTNV-1" source="f_1GU_j4ERplmiDREGUJ-167" target="f_1GU_j4ERplmiDREGUJ-183" edge="1">
          <mxGeometry relative="1" as="geometry">
            <mxPoint x="380" y="510" as="targetPoint" />
          </mxGeometry>
        </mxCell>
        <mxCell id="f_1GU_j4ERplmiDREGUJ-167" value="Пакет данных" style="rounded=0;whiteSpace=wrap;html=1;" parent="WIyWlLk6GJQsqaUBKTNV-1" vertex="1">
          <mxGeometry x="320" y="379.9999999999999" width="120" height="60" as="geometry" />
        </mxCell>
        <mxCell id="f_1GU_j4ERplmiDREGUJ-168" value="" style="endArrow=classic;html=1;rounded=0;exitX=0.5;exitY=1;exitDx=0;exitDy=0;entryX=0.5;entryY=0;entryDx=0;entryDy=0;" parent="WIyWlLk6GJQsqaUBKTNV-1" source="f_1GU_j4ERplmiDREGUJ-183" target="f_1GU_j4ERplmiDREGUJ-26" edge="1">
          <mxGeometry width="50" height="50" relative="1" as="geometry">
            <mxPoint x="385" y="584.9999999999999" as="sourcePoint" />
            <mxPoint x="405" y="645" as="targetPoint" />
          </mxGeometry>
        </mxCell>
        <mxCell id="f_1GU_j4ERplmiDREGUJ-177" value="Загрузка сайта" style="rounded=1;whiteSpace=wrap;html=1;" parent="WIyWlLk6GJQsqaUBKTNV-1" vertex="1">
          <mxGeometry x="320" y="90" width="120" height="60" as="geometry" />
        </mxCell>
        <mxCell id="f_1GU_j4ERplmiDREGUJ-181" value="Високосность" style="text;html=1;strokeColor=none;fillColor=none;align=center;verticalAlign=middle;whiteSpace=wrap;rounded=0;" parent="WIyWlLk6GJQsqaUBKTNV-1" vertex="1">
          <mxGeometry x="190" y="815" width="60" height="40" as="geometry" />
        </mxCell>
        <mxCell id="f_1GU_j4ERplmiDREGUJ-183" value="Создаем экземпляр класса Создание даты, который принимает данные даты" style="rounded=0;whiteSpace=wrap;html=1;" parent="WIyWlLk6GJQsqaUBKTNV-1" vertex="1">
          <mxGeometry x="305" y="470" width="150" height="80" as="geometry" />
        </mxCell>
        <mxCell id="f_1GU_j4ERplmiDREGUJ-184" value="" style="endArrow=classic;html=1;rounded=0;" parent="WIyWlLk6GJQsqaUBKTNV-1" edge="1">
          <mxGeometry width="50" height="50" relative="1" as="geometry">
            <mxPoint x="380" y="940" as="sourcePoint" />
            <mxPoint x="380" y="1000" as="targetPoint" />
          </mxGeometry>
        </mxCell>
        <mxCell id="f_1GU_j4ERplmiDREGUJ-186" style="edgeStyle=orthogonalEdgeStyle;rounded=0;orthogonalLoop=1;jettySize=auto;html=1;entryX=0.5;entryY=0;entryDx=0;entryDy=0;" parent="WIyWlLk6GJQsqaUBKTNV-1" source="f_1GU_j4ERplmiDREGUJ-185" target="f_1GU_j4ERplmiDREGUJ-189" edge="1">
          <mxGeometry relative="1" as="geometry">
            <mxPoint x="380" y="1150.0000000000002" as="targetPoint" />
          </mxGeometry>
        </mxCell>
        <mxCell id="f_1GU_j4ERplmiDREGUJ-185" value="В классе Создание даты&lt;br&gt;&amp;nbsp;также вычисляются данные про год и месяц первой и третьей позиции" style="rounded=0;whiteSpace=wrap;html=1;" parent="WIyWlLk6GJQsqaUBKTNV-1" vertex="1">
          <mxGeometry x="297.5" y="1000" width="165" height="80" as="geometry" />
        </mxCell>
        <mxCell id="f_1GU_j4ERplmiDREGUJ-190" style="edgeStyle=orthogonalEdgeStyle;rounded=0;orthogonalLoop=1;jettySize=auto;html=1;" parent="WIyWlLk6GJQsqaUBKTNV-1" source="f_1GU_j4ERplmiDREGUJ-189" edge="1">
          <mxGeometry relative="1" as="geometry">
            <mxPoint x="380" y="1300.0000000000002" as="targetPoint" />
          </mxGeometry>
        </mxCell>
        <mxCell id="f_1GU_j4ERplmiDREGUJ-189" value="Далее полученные данные, сохраняющиеся в свойствах класса отправляются View" style="rounded=0;whiteSpace=wrap;html=1;" parent="WIyWlLk6GJQsqaUBKTNV-1" vertex="1">
          <mxGeometry x="300" y="1150" width="160" height="90" as="geometry" />
        </mxCell>
        <mxCell id="f_1GU_j4ERplmiDREGUJ-192" style="edgeStyle=orthogonalEdgeStyle;rounded=0;orthogonalLoop=1;jettySize=auto;html=1;" parent="WIyWlLk6GJQsqaUBKTNV-1" source="f_1GU_j4ERplmiDREGUJ-191" edge="1">
          <mxGeometry relative="1" as="geometry">
            <mxPoint x="380" y="1410.0000000000002" as="targetPoint" />
          </mxGeometry>
        </mxCell>
        <mxCell id="f_1GU_j4ERplmiDREGUJ-191" value="Функции получают данные в виде свойств класса" style="rounded=0;whiteSpace=wrap;html=1;" parent="WIyWlLk6GJQsqaUBKTNV-1" vertex="1">
          <mxGeometry x="320" y="1300" width="120" height="60" as="geometry" />
        </mxCell>
        <mxCell id="f_1GU_j4ERplmiDREGUJ-194" style="edgeStyle=orthogonalEdgeStyle;rounded=0;orthogonalLoop=1;jettySize=auto;html=1;" parent="WIyWlLk6GJQsqaUBKTNV-1" source="f_1GU_j4ERplmiDREGUJ-193" target="f_1GU_j4ERplmiDREGUJ-195" edge="1">
          <mxGeometry relative="1" as="geometry">
            <mxPoint x="380" y="1520" as="targetPoint" />
          </mxGeometry>
        </mxCell>
        <mxCell id="f_1GU_j4ERplmiDREGUJ-196" style="edgeStyle=orthogonalEdgeStyle;rounded=0;orthogonalLoop=1;jettySize=auto;html=1;" parent="WIyWlLk6GJQsqaUBKTNV-1" source="f_1GU_j4ERplmiDREGUJ-193" target="f_1GU_j4ERplmiDREGUJ-197" edge="1">
          <mxGeometry relative="1" as="geometry">
            <mxPoint x="380" y="1540" as="targetPoint" />
          </mxGeometry>
        </mxCell>
        <mxCell id="f_1GU_j4ERplmiDREGUJ-198" style="edgeStyle=orthogonalEdgeStyle;rounded=0;orthogonalLoop=1;jettySize=auto;html=1;exitX=1;exitY=0.5;exitDx=0;exitDy=0;" parent="WIyWlLk6GJQsqaUBKTNV-1" source="f_1GU_j4ERplmiDREGUJ-193" target="f_1GU_j4ERplmiDREGUJ-199" edge="1">
          <mxGeometry relative="1" as="geometry">
            <mxPoint x="725" y="1530" as="targetPoint" />
            <mxPoint x="450" y="1440" as="sourcePoint" />
          </mxGeometry>
        </mxCell>
        <mxCell id="f_1GU_j4ERplmiDREGUJ-193" value="Первоначально очищаем все прошлые текстовые данные на сайте" style="rounded=0;whiteSpace=wrap;html=1;" parent="WIyWlLk6GJQsqaUBKTNV-1" vertex="1">
          <mxGeometry x="315" y="1410" width="130" height="70" as="geometry" />
        </mxCell>
        <mxCell id="f_1GU_j4ERplmiDREGUJ-200" style="edgeStyle=orthogonalEdgeStyle;rounded=0;orthogonalLoop=1;jettySize=auto;html=1;" parent="WIyWlLk6GJQsqaUBKTNV-1" source="f_1GU_j4ERplmiDREGUJ-195" target="f_1GU_j4ERplmiDREGUJ-203" edge="1">
          <mxGeometry relative="1" as="geometry">
            <mxPoint x="170" y="1670" as="targetPoint" />
          </mxGeometry>
        </mxCell>
        <mxCell id="f_1GU_j4ERplmiDREGUJ-195" value="Если месяц имеет в себе 31 день и день недели первого дня месяца - Суббота" style="rounded=0;whiteSpace=wrap;html=1;" parent="WIyWlLk6GJQsqaUBKTNV-1" vertex="1">
          <mxGeometry x="100" y="1530" width="140" height="80" as="geometry" />
        </mxCell>
        <mxCell id="f_1GU_j4ERplmiDREGUJ-201" style="edgeStyle=orthogonalEdgeStyle;rounded=0;orthogonalLoop=1;jettySize=auto;html=1;" parent="WIyWlLk6GJQsqaUBKTNV-1" source="f_1GU_j4ERplmiDREGUJ-197" edge="1">
          <mxGeometry relative="1" as="geometry">
            <mxPoint x="450" y="1660" as="targetPoint" />
          </mxGeometry>
        </mxCell>
        <mxCell id="f_1GU_j4ERplmiDREGUJ-197" value="Если в месяце 30 или 31 день, а день недели - Воскресенье" style="rounded=0;whiteSpace=wrap;html=1;" parent="WIyWlLk6GJQsqaUBKTNV-1" vertex="1">
          <mxGeometry x="380" y="1540" width="140" height="80" as="geometry" />
        </mxCell>
        <mxCell id="f_1GU_j4ERplmiDREGUJ-202" style="edgeStyle=orthogonalEdgeStyle;rounded=0;orthogonalLoop=1;jettySize=auto;html=1;" parent="WIyWlLk6GJQsqaUBKTNV-1" source="f_1GU_j4ERplmiDREGUJ-199" edge="1">
          <mxGeometry relative="1" as="geometry">
            <mxPoint x="745" y="1670" as="targetPoint" />
          </mxGeometry>
        </mxCell>
        <mxCell id="f_1GU_j4ERplmiDREGUJ-199" value="Иначе" style="rounded=0;whiteSpace=wrap;html=1;" parent="WIyWlLk6GJQsqaUBKTNV-1" vertex="1">
          <mxGeometry x="675" y="1530" width="140" height="80" as="geometry" />
        </mxCell>
        <mxCell id="f_1GU_j4ERplmiDREGUJ-204" style="edgeStyle=orthogonalEdgeStyle;rounded=0;orthogonalLoop=1;jettySize=auto;html=1;exitX=0;exitY=0.5;exitDx=0;exitDy=0;" parent="WIyWlLk6GJQsqaUBKTNV-1" source="f_1GU_j4ERplmiDREGUJ-203" target="f_1GU_j4ERplmiDREGUJ-205" edge="1">
          <mxGeometry relative="1" as="geometry">
            <mxPoint x="70" y="1740" as="targetPoint" />
          </mxGeometry>
        </mxCell>
        <mxCell id="f_1GU_j4ERplmiDREGUJ-207" style="edgeStyle=orthogonalEdgeStyle;rounded=0;orthogonalLoop=1;jettySize=auto;html=1;entryX=0.5;entryY=0;entryDx=0;entryDy=0;exitX=1;exitY=0.5;exitDx=0;exitDy=0;" parent="WIyWlLk6GJQsqaUBKTNV-1" source="f_1GU_j4ERplmiDREGUJ-203" target="f_1GU_j4ERplmiDREGUJ-206" edge="1">
          <mxGeometry relative="1" as="geometry" />
        </mxCell>
        <mxCell id="f_1GU_j4ERplmiDREGUJ-208" style="edgeStyle=orthogonalEdgeStyle;rounded=0;orthogonalLoop=1;jettySize=auto;html=1;" parent="WIyWlLk6GJQsqaUBKTNV-1" source="f_1GU_j4ERplmiDREGUJ-203" target="f_1GU_j4ERplmiDREGUJ-209" edge="1">
          <mxGeometry relative="1" as="geometry">
            <mxPoint x="170" y="1830" as="targetPoint" />
          </mxGeometry>
        </mxCell>
        <mxCell id="f_1GU_j4ERplmiDREGUJ-203" value="&amp;nbsp;Дни расставляются с 3 числа" style="rounded=0;whiteSpace=wrap;html=1;" parent="WIyWlLk6GJQsqaUBKTNV-1" vertex="1">
          <mxGeometry x="110" y="1670" width="120" height="60" as="geometry" />
        </mxCell>
        <mxCell id="f_1GU_j4ERplmiDREGUJ-205" value="Когда число 8, вместо него подставляется 1/8" style="rounded=0;whiteSpace=wrap;html=1;" parent="WIyWlLk6GJQsqaUBKTNV-1" vertex="1">
          <mxGeometry x="10" y="1750" width="120" height="60" as="geometry" />
        </mxCell>
        <mxCell id="f_1GU_j4ERplmiDREGUJ-206" value="Когда число 9, вместо него подставляется 2/9" style="rounded=0;whiteSpace=wrap;html=1;" parent="WIyWlLk6GJQsqaUBKTNV-1" vertex="1">
          <mxGeometry x="200" y="1753" width="120" height="60" as="geometry" />
        </mxCell>
        <mxCell id="f_1GU_j4ERplmiDREGUJ-209" value="Иначе, просто число" style="rounded=0;whiteSpace=wrap;html=1;" parent="WIyWlLk6GJQsqaUBKTNV-1" vertex="1">
          <mxGeometry x="110" y="1820" width="120" height="60" as="geometry" />
        </mxCell>
        <mxCell id="f_1GU_j4ERplmiDREGUJ-210" value="&amp;nbsp;Дни расставляются с 2 числа" style="rounded=0;whiteSpace=wrap;html=1;" parent="WIyWlLk6GJQsqaUBKTNV-1" vertex="1">
          <mxGeometry x="390" y="1660" width="120" height="60" as="geometry" />
        </mxCell>
        <mxCell id="f_1GU_j4ERplmiDREGUJ-211" style="edgeStyle=orthogonalEdgeStyle;rounded=0;orthogonalLoop=1;jettySize=auto;html=1;exitX=0;exitY=0.5;exitDx=0;exitDy=0;" parent="WIyWlLk6GJQsqaUBKTNV-1" source="f_1GU_j4ERplmiDREGUJ-210" target="f_1GU_j4ERplmiDREGUJ-212" edge="1">
          <mxGeometry relative="1" as="geometry">
            <mxPoint x="520" y="1780" as="targetPoint" />
          </mxGeometry>
        </mxCell>
        <mxCell id="f_1GU_j4ERplmiDREGUJ-212" value="Когда число 8, вместо него подставляется 1/8" style="rounded=0;whiteSpace=wrap;html=1;" parent="WIyWlLk6GJQsqaUBKTNV-1" vertex="1">
          <mxGeometry x="340" y="1753" width="120" height="60" as="geometry" />
        </mxCell>
        <mxCell id="f_1GU_j4ERplmiDREGUJ-213" value="Иначе, просто число" style="rounded=0;whiteSpace=wrap;html=1;" parent="WIyWlLk6GJQsqaUBKTNV-1" vertex="1">
          <mxGeometry x="480" y="1753" width="120" height="60" as="geometry" />
        </mxCell>
        <mxCell id="f_1GU_j4ERplmiDREGUJ-214" style="edgeStyle=orthogonalEdgeStyle;rounded=0;orthogonalLoop=1;jettySize=auto;html=1;exitX=1;exitY=0.5;exitDx=0;exitDy=0;" parent="WIyWlLk6GJQsqaUBKTNV-1" source="f_1GU_j4ERplmiDREGUJ-210" target="f_1GU_j4ERplmiDREGUJ-213" edge="1">
          <mxGeometry relative="1" as="geometry">
            <mxPoint x="575" y="1850" as="targetPoint" />
            <mxPoint x="575" y="1750" as="sourcePoint" />
          </mxGeometry>
        </mxCell>
        <mxCell id="f_1GU_j4ERplmiDREGUJ-215" value="&amp;nbsp;Дни расставляются с 1 числа" style="rounded=0;whiteSpace=wrap;html=1;" parent="WIyWlLk6GJQsqaUBKTNV-1" vertex="1">
          <mxGeometry x="685" y="1670" width="120" height="60" as="geometry" />
        </mxCell>
        <mxCell id="f_1GU_j4ERplmiDREGUJ-218" value="" style="endArrow=classic;html=1;rounded=0;exitX=0.5;exitY=1;exitDx=0;exitDy=0;" parent="WIyWlLk6GJQsqaUBKTNV-1" source="f_1GU_j4ERplmiDREGUJ-205" edge="1">
          <mxGeometry width="50" height="50" relative="1" as="geometry">
            <mxPoint x="130" y="1970" as="sourcePoint" />
            <mxPoint x="170" y="1940" as="targetPoint" />
            <Array as="points">
              <mxPoint x="70" y="1940" />
            </Array>
          </mxGeometry>
        </mxCell>
        <mxCell id="f_1GU_j4ERplmiDREGUJ-219" value="" style="endArrow=classic;html=1;rounded=0;exitX=0.5;exitY=1;exitDx=0;exitDy=0;" parent="WIyWlLk6GJQsqaUBKTNV-1" source="f_1GU_j4ERplmiDREGUJ-206" edge="1">
          <mxGeometry width="50" height="50" relative="1" as="geometry">
            <mxPoint x="340" y="1910" as="sourcePoint" />
            <mxPoint x="170" y="1940" as="targetPoint" />
            <Array as="points">
              <mxPoint x="260" y="1940" />
            </Array>
          </mxGeometry>
        </mxCell>
        <mxCell id="f_1GU_j4ERplmiDREGUJ-220" value="" style="endArrow=classic;html=1;rounded=0;exitX=0.5;exitY=1;exitDx=0;exitDy=0;" parent="WIyWlLk6GJQsqaUBKTNV-1" source="f_1GU_j4ERplmiDREGUJ-209" edge="1">
          <mxGeometry width="50" height="50" relative="1" as="geometry">
            <mxPoint x="340" y="1910" as="sourcePoint" />
            <mxPoint x="170" y="1940" as="targetPoint" />
          </mxGeometry>
        </mxCell>
        <mxCell id="f_1GU_j4ERplmiDREGUJ-221" value="" style="endArrow=classic;html=1;rounded=0;exitX=0.5;exitY=1;exitDx=0;exitDy=0;" parent="WIyWlLk6GJQsqaUBKTNV-1" source="f_1GU_j4ERplmiDREGUJ-212" edge="1">
          <mxGeometry width="50" height="50" relative="1" as="geometry">
            <mxPoint x="340" y="1910" as="sourcePoint" />
            <mxPoint x="470" y="1930" as="targetPoint" />
            <Array as="points">
              <mxPoint x="400" y="1930" />
            </Array>
          </mxGeometry>
        </mxCell>
        <mxCell id="f_1GU_j4ERplmiDREGUJ-222" value="" style="endArrow=classic;html=1;rounded=0;exitX=0.5;exitY=1;exitDx=0;exitDy=0;" parent="WIyWlLk6GJQsqaUBKTNV-1" source="f_1GU_j4ERplmiDREGUJ-213" edge="1">
          <mxGeometry width="50" height="50" relative="1" as="geometry">
            <mxPoint x="340" y="1910" as="sourcePoint" />
            <mxPoint x="470" y="1930" as="targetPoint" />
            <Array as="points">
              <mxPoint x="540" y="1930" />
            </Array>
          </mxGeometry>
        </mxCell>
        <mxCell id="f_1GU_j4ERplmiDREGUJ-223" value="" style="endArrow=classic;html=1;rounded=0;exitX=0.5;exitY=1;exitDx=0;exitDy=0;entryX=0.75;entryY=0;entryDx=0;entryDy=0;" parent="WIyWlLk6GJQsqaUBKTNV-1" source="f_1GU_j4ERplmiDREGUJ-215" edge="1" target="f_1GU_j4ERplmiDREGUJ-226">
          <mxGeometry width="50" height="50" relative="1" as="geometry">
            <mxPoint x="730" y="1840" as="sourcePoint" />
            <mxPoint x="450" y="2090" as="targetPoint" />
            <Array as="points">
              <mxPoint x="750" y="2000" />
              <mxPoint x="520" y="2000" />
              <mxPoint x="520" y="2070" />
              <mxPoint x="420" y="2070" />
            </Array>
          </mxGeometry>
        </mxCell>
        <mxCell id="f_1GU_j4ERplmiDREGUJ-224" value="" style="endArrow=classic;html=1;rounded=0;" parent="WIyWlLk6GJQsqaUBKTNV-1" edge="1">
          <mxGeometry width="50" height="50" relative="1" as="geometry">
            <mxPoint x="170" y="1940" as="sourcePoint" />
            <mxPoint x="330" y="2090" as="targetPoint" />
            <Array as="points">
              <mxPoint x="170" y="2020" />
              <mxPoint x="330" y="2020" />
            </Array>
          </mxGeometry>
        </mxCell>
        <mxCell id="f_1GU_j4ERplmiDREGUJ-225" value="" style="endArrow=classic;html=1;rounded=0;" parent="WIyWlLk6GJQsqaUBKTNV-1" edge="1">
          <mxGeometry width="50" height="50" relative="1" as="geometry">
            <mxPoint x="470" y="1930" as="sourcePoint" />
            <mxPoint x="380" y="2090" as="targetPoint" />
            <Array as="points">
              <mxPoint x="470" y="2020" />
              <mxPoint x="380" y="2020" />
            </Array>
          </mxGeometry>
        </mxCell>
        <mxCell id="f_1GU_j4ERplmiDREGUJ-226" value="Определение и расставление всех дней недели для каждого месяца" style="rounded=0;whiteSpace=wrap;html=1;" parent="WIyWlLk6GJQsqaUBKTNV-1" vertex="1">
          <mxGeometry x="303.75" y="2090" width="155" height="80" as="geometry" />
        </mxCell>
        <mxCell id="f_1GU_j4ERplmiDREGUJ-227" value="" style="endArrow=classic;html=1;rounded=0;exitX=0.5;exitY=1;exitDx=0;exitDy=0;" parent="WIyWlLk6GJQsqaUBKTNV-1" source="f_1GU_j4ERplmiDREGUJ-226" edge="1">
          <mxGeometry width="50" height="50" relative="1" as="geometry">
            <mxPoint x="356.5" y="2420" as="sourcePoint" />
            <mxPoint x="381" y="2220" as="targetPoint" />
          </mxGeometry>
        </mxCell>
        <mxCell id="f_1GU_j4ERplmiDREGUJ-230" style="edgeStyle=orthogonalEdgeStyle;rounded=0;orthogonalLoop=1;jettySize=auto;html=1;" parent="WIyWlLk6GJQsqaUBKTNV-1" source="f_1GU_j4ERplmiDREGUJ-228" edge="1">
          <mxGeometry relative="1" as="geometry">
            <mxPoint x="377.5" y="2510" as="targetPoint" />
          </mxGeometry>
        </mxCell>
        <mxCell id="f_1GU_j4ERplmiDREGUJ-228" value="Создание экземпляра класса Дата со значением 1 января указанного года" style="rounded=0;whiteSpace=wrap;html=1;" parent="WIyWlLk6GJQsqaUBKTNV-1" vertex="1">
          <mxGeometry x="305" y="2350" width="145" height="80" as="geometry" />
        </mxCell>
        <mxCell id="f_1GU_j4ERplmiDREGUJ-231" value="Определение его индекса" style="rounded=0;whiteSpace=wrap;html=1;" parent="WIyWlLk6GJQsqaUBKTNV-1" vertex="1">
          <mxGeometry x="317.5" y="2510" width="120" height="60" as="geometry" />
        </mxCell>
        <mxCell id="f_1GU_j4ERplmiDREGUJ-232" value="" style="endArrow=classic;html=1;rounded=0;exitX=0;exitY=0.5;exitDx=0;exitDy=0;" parent="WIyWlLk6GJQsqaUBKTNV-1" source="f_1GU_j4ERplmiDREGUJ-231" target="f_1GU_j4ERplmiDREGUJ-233" edge="1">
          <mxGeometry width="50" height="50" relative="1" as="geometry">
            <mxPoint x="332.5" y="2630" as="sourcePoint" />
            <mxPoint x="252.5" y="2590" as="targetPoint" />
            <Array as="points">
              <mxPoint x="252.5" y="2540" />
            </Array>
          </mxGeometry>
        </mxCell>
        <mxCell id="f_1GU_j4ERplmiDREGUJ-236" style="edgeStyle=orthogonalEdgeStyle;rounded=0;orthogonalLoop=1;jettySize=auto;html=1;" parent="WIyWlLk6GJQsqaUBKTNV-1" source="f_1GU_j4ERplmiDREGUJ-233" edge="1">
          <mxGeometry relative="1" as="geometry">
            <mxPoint x="362.5" y="2690" as="targetPoint" />
          </mxGeometry>
        </mxCell>
        <mxCell id="f_1GU_j4ERplmiDREGUJ-233" value="Если это 1 января - это воскресенье, то индекс дня равен 7" style="rounded=0;whiteSpace=wrap;html=1;" parent="WIyWlLk6GJQsqaUBKTNV-1" vertex="1">
          <mxGeometry x="192.5" y="2590" width="120" height="60" as="geometry" />
        </mxCell>
        <mxCell id="f_1GU_j4ERplmiDREGUJ-234" value="" style="endArrow=classic;html=1;rounded=0;exitX=1;exitY=0.5;exitDx=0;exitDy=0;" parent="WIyWlLk6GJQsqaUBKTNV-1" source="f_1GU_j4ERplmiDREGUJ-231" target="f_1GU_j4ERplmiDREGUJ-235" edge="1">
          <mxGeometry width="50" height="50" relative="1" as="geometry">
            <mxPoint x="332.5" y="2630" as="sourcePoint" />
            <mxPoint x="522.5" y="2590" as="targetPoint" />
            <Array as="points">
              <mxPoint x="522.5" y="2540" />
            </Array>
          </mxGeometry>
        </mxCell>
        <mxCell id="f_1GU_j4ERplmiDREGUJ-237" style="edgeStyle=orthogonalEdgeStyle;rounded=0;orthogonalLoop=1;jettySize=auto;html=1;entryX=0.75;entryY=0;entryDx=0;entryDy=0;" parent="WIyWlLk6GJQsqaUBKTNV-1" source="f_1GU_j4ERplmiDREGUJ-235" target="f_1GU_j4ERplmiDREGUJ-238" edge="1">
          <mxGeometry relative="1" as="geometry">
            <mxPoint x="402.5" y="2690" as="targetPoint" />
          </mxGeometry>
        </mxCell>
        <mxCell id="f_1GU_j4ERplmiDREGUJ-235" value="Иначе индекс дня равен значению дня недели" style="rounded=0;whiteSpace=wrap;html=1;" parent="WIyWlLk6GJQsqaUBKTNV-1" vertex="1">
          <mxGeometry x="462.5" y="2590" width="120" height="60" as="geometry" />
        </mxCell>
        <mxCell id="f_1GU_j4ERplmiDREGUJ-238" value="Определение номера недели для 1 числа указанного месяца" style="rounded=0;whiteSpace=wrap;html=1;" parent="WIyWlLk6GJQsqaUBKTNV-1" vertex="1">
          <mxGeometry x="335" y="2690" width="120" height="60" as="geometry" />
        </mxCell>
        <mxCell id="f_1GU_j4ERplmiDREGUJ-239" value="" style="endArrow=classic;html=1;rounded=0;exitX=0.5;exitY=1;exitDx=0;exitDy=0;" parent="WIyWlLk6GJQsqaUBKTNV-1" source="f_1GU_j4ERplmiDREGUJ-238" edge="1">
          <mxGeometry width="50" height="50" relative="1" as="geometry">
            <mxPoint x="332.5" y="2850" as="sourcePoint" />
            <mxPoint x="395.5" y="2800" as="targetPoint" />
          </mxGeometry>
        </mxCell>
        <mxCell id="f_1GU_j4ERplmiDREGUJ-240" value="Проверка месяца, 1 января и дня недели на определенные условия, которые влияют на значения номера недели" style="rounded=0;whiteSpace=wrap;html=1;" parent="WIyWlLk6GJQsqaUBKTNV-1" vertex="1">
          <mxGeometry x="303.75" y="2800" width="182.5" height="100" as="geometry" />
        </mxCell>
        <mxCell id="f_1GU_j4ERplmiDREGUJ-241" value="" style="endArrow=classic;html=1;rounded=0;exitX=0.5;exitY=1;exitDx=0;exitDy=0;" parent="WIyWlLk6GJQsqaUBKTNV-1" source="f_1GU_j4ERplmiDREGUJ-240" edge="1">
          <mxGeometry width="50" height="50" relative="1" as="geometry">
            <mxPoint x="332.5" y="3000" as="sourcePoint" />
            <mxPoint x="395.5" y="2960" as="targetPoint" />
          </mxGeometry>
        </mxCell>
        <mxCell id="f_1GU_j4ERplmiDREGUJ-242" value="Далее расставляются статические значения месяца и года для первой и третьей позиции" style="rounded=0;whiteSpace=wrap;html=1;" parent="WIyWlLk6GJQsqaUBKTNV-1" vertex="1">
          <mxGeometry x="308.75" y="2960" width="172.5" height="90" as="geometry" />
        </mxCell>
        <mxCell id="f_1GU_j4ERplmiDREGUJ-243" value="" style="endArrow=classic;html=1;rounded=0;exitX=0.5;exitY=1;exitDx=0;exitDy=0;" parent="WIyWlLk6GJQsqaUBKTNV-1" source="f_1GU_j4ERplmiDREGUJ-242" edge="1">
          <mxGeometry width="50" height="50" relative="1" as="geometry">
            <mxPoint x="367.5" y="3150" as="sourcePoint" />
            <mxPoint x="395.5" y="3100" as="targetPoint" />
          </mxGeometry>
        </mxCell>
        <mxCell id="f_1GU_j4ERplmiDREGUJ-245" style="edgeStyle=orthogonalEdgeStyle;rounded=0;orthogonalLoop=1;jettySize=auto;html=1;" parent="WIyWlLk6GJQsqaUBKTNV-1" source="f_1GU_j4ERplmiDREGUJ-244" target="f_1GU_j4ERplmiDREGUJ-246" edge="1">
          <mxGeometry relative="1" as="geometry">
            <mxPoint x="172.5" y="3200" as="targetPoint" />
          </mxGeometry>
        </mxCell>
        <mxCell id="f_1GU_j4ERplmiDREGUJ-247" style="edgeStyle=orthogonalEdgeStyle;rounded=0;orthogonalLoop=1;jettySize=auto;html=1;" parent="WIyWlLk6GJQsqaUBKTNV-1" source="f_1GU_j4ERplmiDREGUJ-244" target="f_1GU_j4ERplmiDREGUJ-248" edge="1">
          <mxGeometry relative="1" as="geometry">
            <mxPoint x="652.5" y="3220" as="targetPoint" />
          </mxGeometry>
        </mxCell>
        <mxCell id="f_1GU_j4ERplmiDREGUJ-244" value="На основе полученных значений дня и месяца определяем выделяемый день по определенным условиям" style="rounded=0;whiteSpace=wrap;html=1;" parent="WIyWlLk6GJQsqaUBKTNV-1" vertex="1">
          <mxGeometry x="317.5" y="3100" width="152.5" height="80" as="geometry" />
        </mxCell>
        <mxCell id="f_1GU_j4ERplmiDREGUJ-246" value="Если дней в месяце больше, чем указанная дата, то выделяется первое число" style="rounded=0;whiteSpace=wrap;html=1;" parent="WIyWlLk6GJQsqaUBKTNV-1" vertex="1">
          <mxGeometry x="82.5" y="3190" width="140" height="80" as="geometry" />
        </mxCell>
        <mxCell id="f_1GU_j4ERplmiDREGUJ-248" value="Если в месяце произошла реализация дроби, то выделяется соответственная дробь, а дальнейшее выделяемое значение равно меньшему значению из дроби" style="rounded=0;whiteSpace=wrap;html=1;" parent="WIyWlLk6GJQsqaUBKTNV-1" vertex="1">
          <mxGeometry x="537.5" y="3200" width="180" height="130" as="geometry" />
        </mxCell>
        <mxCell id="f_1GU_j4ERplmiDREGUJ-249" value="" style="endArrow=classic;html=1;rounded=0;exitX=0.5;exitY=1;exitDx=0;exitDy=0;" parent="WIyWlLk6GJQsqaUBKTNV-1" source="f_1GU_j4ERplmiDREGUJ-244" edge="1">
          <mxGeometry width="50" height="50" relative="1" as="geometry">
            <mxPoint x="332.5" y="3300" as="sourcePoint" />
            <mxPoint x="392.5" y="3250" as="targetPoint" />
          </mxGeometry>
        </mxCell>
        <mxCell id="f_1GU_j4ERplmiDREGUJ-250" value="Иначе просто выделяем соответственный день&amp;nbsp;" style="rounded=0;whiteSpace=wrap;html=1;" parent="WIyWlLk6GJQsqaUBKTNV-1" vertex="1">
          <mxGeometry x="332.5" y="3250" width="120" height="60" as="geometry" />
        </mxCell>
        <mxCell id="f_1GU_j4ERplmiDREGUJ-251" value="" style="endArrow=classic;html=1;rounded=0;exitX=0.5;exitY=1;exitDx=0;exitDy=0;" parent="WIyWlLk6GJQsqaUBKTNV-1" source="f_1GU_j4ERplmiDREGUJ-246" edge="1">
          <mxGeometry width="50" height="50" relative="1" as="geometry">
            <mxPoint x="332.5" y="3440" as="sourcePoint" />
            <mxPoint x="392.5" y="3390" as="targetPoint" />
            <Array as="points">
              <mxPoint x="152.5" y="3390" />
            </Array>
          </mxGeometry>
        </mxCell>
        <mxCell id="f_1GU_j4ERplmiDREGUJ-252" value="" style="endArrow=classic;html=1;rounded=0;exitX=0.5;exitY=1;exitDx=0;exitDy=0;" parent="WIyWlLk6GJQsqaUBKTNV-1" source="f_1GU_j4ERplmiDREGUJ-250" edge="1">
          <mxGeometry width="50" height="50" relative="1" as="geometry">
            <mxPoint x="332.5" y="3440" as="sourcePoint" />
            <mxPoint x="392.5" y="3390" as="targetPoint" />
          </mxGeometry>
        </mxCell>
        <mxCell id="f_1GU_j4ERplmiDREGUJ-253" value="" style="endArrow=classic;html=1;rounded=0;exitX=0.5;exitY=1;exitDx=0;exitDy=0;" parent="WIyWlLk6GJQsqaUBKTNV-1" source="f_1GU_j4ERplmiDREGUJ-248" edge="1">
          <mxGeometry width="50" height="50" relative="1" as="geometry">
            <mxPoint x="332.5" y="3440" as="sourcePoint" />
            <mxPoint x="392.5" y="3390" as="targetPoint" />
            <Array as="points">
              <mxPoint x="627.5" y="3390" />
            </Array>
          </mxGeometry>
        </mxCell>
        <mxCell id="f_1GU_j4ERplmiDREGUJ-254" value="" style="endArrow=classic;html=1;rounded=0;" parent="WIyWlLk6GJQsqaUBKTNV-1" edge="1">
          <mxGeometry width="50" height="50" relative="1" as="geometry">
            <mxPoint x="392.5" y="3390" as="sourcePoint" />
            <mxPoint x="392.5" y="3470" as="targetPoint" />
            <Array as="points">
              <mxPoint x="392.5" y="3450" />
            </Array>
          </mxGeometry>
        </mxCell>
        <mxCell id="f_1GU_j4ERplmiDREGUJ-255" value="Завершение загрузки сайта" style="rounded=0;whiteSpace=wrap;html=1;" parent="WIyWlLk6GJQsqaUBKTNV-1" vertex="1">
          <mxGeometry x="335" y="3430" width="120" height="60" as="geometry" />
        </mxCell>
        <mxCell id="f_1GU_j4ERplmiDREGUJ-256" value="&lt;font style=&quot;font-size: 18px;&quot;&gt;View&lt;/font&gt;" style="text;html=1;strokeColor=none;fillColor=none;align=center;verticalAlign=middle;whiteSpace=wrap;rounded=0;" parent="WIyWlLk6GJQsqaUBKTNV-1" vertex="1">
          <mxGeometry x="30" y="1120" width="110" height="49" as="geometry" />
        </mxCell>
        <mxCell id="Yb07R33bvh0FUu0YTXIn-1" value="cURL" style="swimlane;whiteSpace=wrap;html=1;" parent="WIyWlLk6GJQsqaUBKTNV-1" vertex="1">
          <mxGeometry x="770" y="90" width="470" height="310" as="geometry" />
        </mxCell>
        <mxCell id="Yb07R33bvh0FUu0YTXIn-3" value="Инициализация cURL" style="rounded=1;whiteSpace=wrap;html=1;" parent="Yb07R33bvh0FUu0YTXIn-1" vertex="1">
          <mxGeometry x="20" y="40" width="120" height="60" as="geometry" />
        </mxCell>
        <mxCell id="Yb07R33bvh0FUu0YTXIn-6" value="Получение данных JSON с API" style="rounded=0;whiteSpace=wrap;html=1;" parent="Yb07R33bvh0FUu0YTXIn-1" vertex="1">
          <mxGeometry x="175" y="140" width="120" height="60" as="geometry" />
        </mxCell>
        <mxCell id="Yb07R33bvh0FUu0YTXIn-8" value="Закрытие cURL" style="rounded=0;whiteSpace=wrap;html=1;" parent="Yb07R33bvh0FUu0YTXIn-1" vertex="1">
          <mxGeometry x="175" y="240" width="120" height="60" as="geometry" />
        </mxCell>
        <mxCell id="Yb07R33bvh0FUu0YTXIn-7" style="edgeStyle=orthogonalEdgeStyle;rounded=0;orthogonalLoop=1;jettySize=auto;html=1;" parent="Yb07R33bvh0FUu0YTXIn-1" source="Yb07R33bvh0FUu0YTXIn-6" target="Yb07R33bvh0FUu0YTXIn-8" edge="1">
          <mxGeometry relative="1" as="geometry">
            <mxPoint x="235" y="250" as="targetPoint" />
          </mxGeometry>
        </mxCell>
        <mxCell id="fYNj0ERDDiOQfUAhZlYk-0" value="Подключение к API" style="rounded=0;whiteSpace=wrap;html=1;" vertex="1" parent="Yb07R33bvh0FUu0YTXIn-1">
          <mxGeometry x="310" y="40" width="120" height="60" as="geometry" />
        </mxCell>
        <mxCell id="Yb07R33bvh0FUu0YTXIn-5" style="edgeStyle=orthogonalEdgeStyle;rounded=0;orthogonalLoop=1;jettySize=auto;html=1;" parent="Yb07R33bvh0FUu0YTXIn-1" source="Yb07R33bvh0FUu0YTXIn-3" edge="1" target="fYNj0ERDDiOQfUAhZlYk-0">
          <mxGeometry relative="1" as="geometry">
            <mxPoint x="290" y="70" as="targetPoint" />
          </mxGeometry>
        </mxCell>
        <mxCell id="fYNj0ERDDiOQfUAhZlYk-1" value="" style="endArrow=classic;html=1;rounded=0;exitX=0.5;exitY=1;exitDx=0;exitDy=0;entryX=1;entryY=0.5;entryDx=0;entryDy=0;" edge="1" parent="Yb07R33bvh0FUu0YTXIn-1" source="fYNj0ERDDiOQfUAhZlYk-0" target="Yb07R33bvh0FUu0YTXIn-6">
          <mxGeometry width="50" height="50" relative="1" as="geometry">
            <mxPoint x="370" y="220" as="sourcePoint" />
            <mxPoint x="420" y="170" as="targetPoint" />
            <Array as="points">
              <mxPoint x="370" y="170" />
            </Array>
          </mxGeometry>
        </mxCell>
        <mxCell id="Yb07R33bvh0FUu0YTXIn-11" style="edgeStyle=orthogonalEdgeStyle;rounded=0;orthogonalLoop=1;jettySize=auto;html=1;" parent="WIyWlLk6GJQsqaUBKTNV-1" source="Yb07R33bvh0FUu0YTXIn-10" target="Yb07R33bvh0FUu0YTXIn-12" edge="1">
          <mxGeometry relative="1" as="geometry">
            <mxPoint x="1005" y="540" as="targetPoint" />
          </mxGeometry>
        </mxCell>
        <mxCell id="Yb07R33bvh0FUu0YTXIn-10" value="Распаковка данных JSON" style="rounded=0;whiteSpace=wrap;html=1;" parent="WIyWlLk6GJQsqaUBKTNV-1" vertex="1">
          <mxGeometry x="945" y="440" width="120" height="60" as="geometry" />
        </mxCell>
        <mxCell id="Yb07R33bvh0FUu0YTXIn-13" style="edgeStyle=orthogonalEdgeStyle;rounded=0;orthogonalLoop=1;jettySize=auto;html=1;" parent="WIyWlLk6GJQsqaUBKTNV-1" source="Yb07R33bvh0FUu0YTXIn-12" target="Yb07R33bvh0FUu0YTXIn-14" edge="1">
          <mxGeometry relative="1" as="geometry">
            <mxPoint x="1005" y="670" as="targetPoint" />
          </mxGeometry>
        </mxCell>
        <mxCell id="Yb07R33bvh0FUu0YTXIn-12" value="Обработка данных&amp;nbsp;" style="rounded=0;whiteSpace=wrap;html=1;" parent="WIyWlLk6GJQsqaUBKTNV-1" vertex="1">
          <mxGeometry x="945" y="550" width="120" height="60" as="geometry" />
        </mxCell>
        <mxCell id="Yb07R33bvh0FUu0YTXIn-15" style="edgeStyle=orthogonalEdgeStyle;rounded=0;orthogonalLoop=1;jettySize=auto;html=1;" parent="WIyWlLk6GJQsqaUBKTNV-1" source="Yb07R33bvh0FUu0YTXIn-14" target="Yb07R33bvh0FUu0YTXIn-16" edge="1">
          <mxGeometry relative="1" as="geometry">
            <mxPoint x="1005" y="770" as="targetPoint" />
          </mxGeometry>
        </mxCell>
        <mxCell id="Yb07R33bvh0FUu0YTXIn-14" value="Формирование пакета данных JSON" style="rounded=0;whiteSpace=wrap;html=1;" parent="WIyWlLk6GJQsqaUBKTNV-1" vertex="1">
          <mxGeometry x="945" y="660" width="120" height="60" as="geometry" />
        </mxCell>
        <mxCell id="Yb07R33bvh0FUu0YTXIn-17" style="edgeStyle=orthogonalEdgeStyle;rounded=0;orthogonalLoop=1;jettySize=auto;html=1;" parent="WIyWlLk6GJQsqaUBKTNV-1" source="Yb07R33bvh0FUu0YTXIn-16" target="Yb07R33bvh0FUu0YTXIn-18" edge="1">
          <mxGeometry relative="1" as="geometry">
            <mxPoint x="1005" y="870" as="targetPoint" />
          </mxGeometry>
        </mxCell>
        <mxCell id="Yb07R33bvh0FUu0YTXIn-16" value="Отправка данных JSON" style="rounded=0;whiteSpace=wrap;html=1;" parent="WIyWlLk6GJQsqaUBKTNV-1" vertex="1">
          <mxGeometry x="945" y="760" width="120" height="60" as="geometry" />
        </mxCell>
        <mxCell id="Yb07R33bvh0FUu0YTXIn-20" style="edgeStyle=orthogonalEdgeStyle;rounded=0;orthogonalLoop=1;jettySize=auto;html=1;" parent="WIyWlLk6GJQsqaUBKTNV-1" source="Yb07R33bvh0FUu0YTXIn-18" target="Yb07R33bvh0FUu0YTXIn-21" edge="1">
          <mxGeometry relative="1" as="geometry">
            <mxPoint x="1005" y="980" as="targetPoint" />
          </mxGeometry>
        </mxCell>
        <mxCell id="Yb07R33bvh0FUu0YTXIn-18" value="Пакет данных&amp;nbsp;" style="rounded=0;whiteSpace=wrap;html=1;" parent="WIyWlLk6GJQsqaUBKTNV-1" vertex="1">
          <mxGeometry x="945" y="855" width="120" height="60" as="geometry" />
        </mxCell>
        <mxCell id="Yb07R33bvh0FUu0YTXIn-22" style="edgeStyle=orthogonalEdgeStyle;rounded=0;orthogonalLoop=1;jettySize=auto;html=1;" parent="WIyWlLk6GJQsqaUBKTNV-1" source="Yb07R33bvh0FUu0YTXIn-21" target="Yb07R33bvh0FUu0YTXIn-23" edge="1">
          <mxGeometry relative="1" as="geometry">
            <mxPoint x="860" y="990" as="targetPoint" />
          </mxGeometry>
        </mxCell>
        <mxCell id="Yb07R33bvh0FUu0YTXIn-21" value="Получение и распаковка данных JSON в файле JS" style="rounded=0;whiteSpace=wrap;html=1;" parent="WIyWlLk6GJQsqaUBKTNV-1" vertex="1">
          <mxGeometry x="945" y="960" width="120" height="60" as="geometry" />
        </mxCell>
        <mxCell id="Yb07R33bvh0FUu0YTXIn-24" style="edgeStyle=orthogonalEdgeStyle;rounded=0;orthogonalLoop=1;jettySize=auto;html=1;" parent="WIyWlLk6GJQsqaUBKTNV-1" source="Yb07R33bvh0FUu0YTXIn-23" target="Yb07R33bvh0FUu0YTXIn-25" edge="1">
          <mxGeometry relative="1" as="geometry">
            <mxPoint x="650" y="1030" as="targetPoint" />
          </mxGeometry>
        </mxCell>
        <mxCell id="Yb07R33bvh0FUu0YTXIn-23" value="Обработка данных" style="rounded=0;whiteSpace=wrap;html=1;" parent="WIyWlLk6GJQsqaUBKTNV-1" vertex="1">
          <mxGeometry x="760" y="1000" width="120" height="60" as="geometry" />
        </mxCell>
        <mxCell id="Yb07R33bvh0FUu0YTXIn-25" value="Пакет данных про праздники" style="rounded=0;whiteSpace=wrap;html=1;" parent="WIyWlLk6GJQsqaUBKTNV-1" vertex="1">
          <mxGeometry x="880" y="1190" width="120" height="60" as="geometry" />
        </mxCell>
        <mxCell id="Yb07R33bvh0FUu0YTXIn-28" value="Проверка каждого дня на соответствие празднику" style="rounded=0;whiteSpace=wrap;html=1;" parent="WIyWlLk6GJQsqaUBKTNV-1" vertex="1">
          <mxGeometry x="287.5" y="2220" width="180" height="60" as="geometry" />
        </mxCell>
        <mxCell id="Yb07R33bvh0FUu0YTXIn-29" value="" style="endArrow=classic;html=1;rounded=0;exitX=0.5;exitY=1;exitDx=0;exitDy=0;entryX=0.5;entryY=0;entryDx=0;entryDy=0;" parent="WIyWlLk6GJQsqaUBKTNV-1" source="Yb07R33bvh0FUu0YTXIn-28" target="f_1GU_j4ERplmiDREGUJ-228" edge="1">
          <mxGeometry width="50" height="50" relative="1" as="geometry">
            <mxPoint x="560" y="2090" as="sourcePoint" />
            <mxPoint x="570" y="2210" as="targetPoint" />
          </mxGeometry>
        </mxCell>
        <mxCell id="Yb07R33bvh0FUu0YTXIn-9" style="edgeStyle=orthogonalEdgeStyle;rounded=0;orthogonalLoop=1;jettySize=auto;html=1;entryX=0.5;entryY=0;entryDx=0;entryDy=0;" parent="WIyWlLk6GJQsqaUBKTNV-1" source="Yb07R33bvh0FUu0YTXIn-8" edge="1" target="Yb07R33bvh0FUu0YTXIn-10">
          <mxGeometry relative="1" as="geometry">
            <mxPoint x="1006" y="450" as="targetPoint" />
          </mxGeometry>
        </mxCell>
        <mxCell id="fYNj0ERDDiOQfUAhZlYk-3" value="" style="endArrow=classic;html=1;rounded=0;exitX=0.5;exitY=1;exitDx=0;exitDy=0;entryX=1;entryY=0.5;entryDx=0;entryDy=0;" edge="1" parent="WIyWlLk6GJQsqaUBKTNV-1" source="Yb07R33bvh0FUu0YTXIn-25" target="Yb07R33bvh0FUu0YTXIn-28">
          <mxGeometry width="50" height="50" relative="1" as="geometry">
            <mxPoint x="700" y="1410" as="sourcePoint" />
            <mxPoint x="750" y="1360" as="targetPoint" />
            <Array as="points">
              <mxPoint x="940" y="2250" />
            </Array>
          </mxGeometry>
        </mxCell>
      </root>
    </mxGraphModel>
  </diagram>
</mxfile>
